<svg width="70" height="70" viewBox="0 0 70 70" fill="none" xmlns="http://www.w3.org/2000/svg">
<rect opacity="0.8" width="70" height="70" rx="10" fill="#DB746F"/>
<path d="M23.9179 42.4123L37.7049 53.4413V16.5735L23.918 27.6047L23.5071 27.9335H22.9809H16.3381C15.5906 27.9335 14.9797 28.5434 14.9797 29.2918V40.7252C14.9797 41.4718 15.5916 42.0836 16.3381 42.0836H22.9809H23.5071L23.9179 42.4123Z" stroke="white" stroke-width="3"/>
<path d="M46.4393 45.1157C45.8762 45.6702 44.973 45.6616 44.4184 45.1043C43.8639 44.5412 43.8696 43.6379 44.4299 43.0805C46.5908 40.9482 47.7799 38.0813 47.7799 35.0086C47.7799 31.9358 46.5908 29.0689 44.4299 26.9366C43.8696 26.3849 43.8639 25.4788 44.4184 24.9157C44.6986 24.6327 45.0673 24.4927 45.4332 24.4927C45.7962 24.4927 46.1592 24.6299 46.4393 24.9071C49.149 27.574 50.6382 31.1641 50.6382 35.0086C50.6382 38.853 49.149 42.4431 46.4393 45.1157Z" fill="white"/>
<path d="M50.4725 49.1431C49.9094 49.7005 49.0062 49.6948 48.4488 49.1346C47.8943 48.5743 47.9 47.6682 48.4574 47.1137C51.7074 43.8923 53.4967 39.5934 53.4967 35.0086C53.4967 30.4238 51.7074 26.1277 48.4574 22.9063C47.9 22.3489 47.8943 21.4428 48.4488 20.8826C48.7318 20.6025 49.0977 20.4624 49.4635 20.4624C49.8266 20.4624 50.1924 20.5996 50.4725 20.8769C54.2684 24.6356 56.355 29.6549 56.355 35.0086C56.355 40.3623 54.2684 45.3816 50.4725 49.1431Z" fill="white"/>
<rect x="59" y="14" width="63.4386" height="4" rx="1" transform="rotate(134.874 59 14)" fill="white"/>
</svg>
