<svg width="70" height="70" viewBox="0 0 70 70" fill="none" xmlns="http://www.w3.org/2000/svg">
<rect opacity="0.8" width="70" height="70" rx="10" fill="#DB746F"/>
<path d="M23.9177 42.4123L37.7047 53.4413V16.5735L23.9178 27.6047L23.5069 27.9335H22.9807H16.3378C15.5903 27.9335 14.9795 28.5434 14.9795 29.2918V40.7252C14.9795 41.4718 15.5913 42.0836 16.3378 42.0836H22.9807H23.5068L23.9177 42.4123Z" stroke="white" stroke-width="3"/>
<path d="M46.4391 45.1157C45.876 45.6702 44.9727 45.6616 44.4182 45.1043C43.8637 44.5412 43.8694 43.6379 44.4296 43.0805C46.5906 40.9482 47.7796 38.0813 47.7796 35.0086C47.7796 31.9358 46.5906 29.0689 44.4296 26.9366C43.8694 26.3849 43.8637 25.4788 44.4182 24.9157C44.6983 24.6327 45.067 24.4927 45.4329 24.4927C45.7959 24.4927 46.1589 24.6299 46.4391 24.9071C49.1488 27.574 50.638 31.1641 50.638 35.0086C50.638 38.853 49.1488 42.4431 46.4391 45.1157Z" fill="white"/>
<path d="M50.4723 49.1431C49.9092 49.7005 49.006 49.6948 48.4486 49.1346C47.8941 48.5743 47.8998 47.6682 48.4572 47.1137C51.7071 43.8923 53.4964 39.5934 53.4964 35.0086C53.4964 30.4238 51.7071 26.1277 48.4572 22.9063C47.8998 22.3489 47.8941 21.4428 48.4486 20.8826C48.7316 20.6025 49.0974 20.4624 49.4633 20.4624C49.8263 20.4624 50.1922 20.5996 50.4723 20.8769C54.2682 24.6356 56.3548 29.6549 56.3548 35.0086C56.3548 40.3623 54.2682 45.3816 50.4723 49.1431Z" fill="white"/>
</svg>
